<svg xmlns="http://www.w3.org/2000/svg" width="173" height="40" viewBox="0 0 173 40" aria-labelledby="site-logo-title site-logo-desc" class="logo__svg" role="img"> <title id="site-logo-title">Gemeente Breda</title> <desc id="site-logo-desc">Logo dat naar de hoofdpagina leidt</desc> <path class="logo--emblem" fill="#eb002f" d="M76.79 15.38 86 24.63l-6.14 6.15-9.22-9.23-9.21 9.23-6.14-6.15 9.21-9.23-9.21-9.24L61.43 0l9.21 9.23L79.86 0 86 6.15l-9.21 9.23ZM30.7 6.15 24.57 0l-9.21 9.23L6.14 0 0 6.15l9.21 9.23L0 24.62l6.14 6.16 9.22-9.23 9.21 9.23 6.14-6.16-9.21-9.23 9.21-9.23Zm27.65 9.23L52.2 9.23 43 18.46l-9.21-9.23-6.15 6.15 9.22 9.24-9.22 9.23L33.8 40l9.2-9.23L52.21 40l6.15-6.15-9.22-9.23 9.22-9.23Z"></path> <path class="logo--sitename" fill="#eb002f" d="M97.65 20.95v-1.56h4.15v.84c0 2.98-1.98 4.9-4.65 4.9-2.94 0-5.15-2.25-5.15-5.57S94.23 14 97.08 14c2.5 0 4.06 1.4 4.48 3.54h-1.85c-.44-1.15-1.17-1.9-2.63-1.9-1.95 0-3.2 1.64-3.2 3.92s1.24 3.95 3.27 3.95c1.65 0 2.65-1.06 2.88-2.56h-2.38Zm13.42-6.77v1.6h-5.33v2.85h4.83v1.6h-4.83v3.08h5.33v1.64h-7.14V14.18h7.14Zm6.98 10.77-3-7.5v7.5h-1.77V14.18h2.12l3.33 8.27 3.3-8.27h2.06v10.77h-1.78v-7.5l-2.94 7.5h-1.32Zm15.86-10.77v1.6h-5.32v2.85h4.82v1.6h-4.82v3.08h5.32v1.64h-7.14V14.18h7.14Zm9.35 0v1.6h-5.32v2.85h4.82v1.6h-4.82v3.08h5.32v1.64h-7.14V14.18h7.14Zm11.01 10.77h-1.43l-5.59-7.85v7.84h-1.78V14.18h1.75l5.27 7.48v-7.47h1.78v10.77Zm1.23-10.77h9.12v1.6H161v9.17h-1.85v-9.16h-3.63v-1.61Zm17.5 0v1.6h-5.33v2.85h4.83v1.6h-4.83v3.08H173v1.64h-7.14V14.18H173Zm-71.62 22.8c0 1.95-1.36 3.02-3.64 3.02h-5.02V29.23h4.69c2.28 0 3.65 1 3.65 2.93 0 1.16-.66 2-1.46 2.28a2.63 2.63 0 0 1 1.78 2.54Zm-4.3-3.49c.84 0 1.29-.31 1.29-.98s-.45-.96-1.29-.96h-1.63v1.94h1.63Zm-1.63 4.2h1.92c.8 0 1.25-.43 1.25-1.04 0-.65-.45-1.05-1.25-1.05h-1.92v2.08Zm10.77-1.25V40h-2.83V29.23h4.92c2.35 0 3.97 1.32 3.97 3.67 0 1.63-.84 2.75-2.18 3.24l2.57 3.86h-3.17l-2.28-3.56h-1Zm0-2.25H108c1.02 0 1.48-.5 1.48-1.3s-.46-1.3-1.48-1.3h-1.78v2.6Zm15.92-4.96v2.42h-5v1.69h4.58v2.36h-4.58v1.86h5V40h-7.81V29.23h7.81Zm2.26 0h4.13c3.44 0 5.52 2.1 5.52 5.39S131.97 40 128.53 40h-4.13V29.23Zm3.99 8.33c1.81 0 2.83-1.14 2.83-2.94 0-1.83-1.02-2.97-2.83-2.97h-1.18v5.91h1.18Zm12.72-8.33L145.26 40h-2.9l-.78-2.09h-3.98l-.76 2.09h-2.83l4.16-10.77h2.93Zm-2.62 6.37h2.24l-1.12-3.04-1.12 3.04Z"></path> </svg>